{
  "accessors": [
    {
      "bufferView": 2,
      "componentType": 5126,
      "count": 47180,
      "max": [
        118.14488220214844,
        876.0278930664063,
        208.43748474121094
      ],
      "min": [
        -118.20512390136719,
        624.9946899414063,
        124.74662780761719
      ],
      "type": "VEC3"
    },
    {
      "bufferView": 2,
      "byteOffset": 566160,
      "componentType": 5126,
      "count": 47180,
      "max": [
        1.0,
        1.0,
        1.0
      ],
      "min": [
        -1.0,
        -1.0,
        -1.0
      ],
      "type": "VEC3"
    },
    {
      "bufferView": 1,
      "componentType": 5126,
      "count": 47180,
      "max": [
        1.140912413597107,
        1.1076972484588623
      ],
      "min": [
        -0.14091244339942932,
        -0.11016225814819336
      ],
      "type": "VEC2"
    },
    {
      "bufferView": 0,
      "componentType": 5125,
      "count": 132546,
      "type": "SCALAR"
    },
    {
      "bufferView": 2,
      "byteOffset": 1132320,
      "componentType": 5126,
      "count": 1342,
      "max": [
        68.33198547363281,
        55.20566940307617,
        53.574649810791016
      ],
      "min": [
        -69.64437103271484,
        -85.62285614013672,
        45.11076736450195
      ],
      "type": "VEC3"
    },
    {
      "bufferView": 2,
      "byteOffset": 1148424,
      "componentType": 5126,
      "count": 1342,
      "max": [
        0.9965032935142517,
        0.9994897842407227,
        0.9999898076057434
      ],
      "min": [
        -0.9965100884437561,
        -0.9908199906349182,
        -0.9985819458961487
      ],
      "type": "VEC3"
    },
    {
      "bufferView": 1,
      "byteOffset": 377440,
      "componentType": 5126,
      "count": 1342,
      "max": [
        1.0013742446899414,
        1.001336693763733
      ],
      "min": [
        -0.0013800407759845257,
        -0.0013363361358642578
      ],
      "type": "VEC2"
    },
    {
      "bufferView": 0,
      "byteOffset": 530184,
      "componentType": 5125,
      "count": 5028,
      "type": "SCALAR"
    },
    {
      "bufferView": 2,
      "byteOffset": 1164528,
      "componentType": 5126,
      "count": 4387,
      "max": [
        118.48259735107422,
        373.8596496582031,
        197.78221130371094
      ],
      "min": [
        -118.54401397705078,
        -0.2238030582666397,
        126.08837127685547
      ],
      "type": "VEC3"
    },
    {
      "bufferView": 2,
      "byteOffset": 1217172,
      "componentType": 5126,
      "count": 4387,
      "max": [
        0.9999993443489075,
        1.0,
        1.0
      ],
      "min": [
        -0.9999993443489075,
        -1.0,
        -1.0
      ],
      "type": "VEC3"
    },
    {
      "bufferView": 1,
      "byteOffset": 388176,
      "componentType": 5126,
      "count": 4387,
      "max": [
        1.140912413597107,
        1.011912226676941
      ],
      "min": [
        -0.14091244339942932,
        -0.011912107467651367
      ],
      "type": "VEC2"
    },
    {
      "bufferView": 0,
      "byteOffset": 550296,
      "componentType": 5125,
      "count": 9534,
      "type": "SCALAR"
    },
    {
      "bufferView": 2,
      "byteOffset": 1269816,
      "componentType": 5126,
      "count": 40960,
      "max": [
        113.14715576171875,
        8.47730827331543,
        123.92579650878906
      ],
      "min": [
        -114.94635772705078,
        -13.075166702270508,
        -131.10995483398438
      ],
      "type": "VEC3"
    },
    {
      "bufferView": 2,
      "byteOffset": 1761336,
      "componentType": 5126,
      "count": 40960,
      "max": [
        1.0,
        1.0,
        0.9999991059303284
      ],
      "min": [
        -1.0,
        -1.0,
        -0.9999991059303284
      ],
      "type": "VEC3"
    },
    {
      "bufferView": 0,
      "byteOffset": 588432,
      "componentType": 5125,
      "count": 59412,
      "type": "SCALAR"
    },
    {
      "bufferView": 2,
      "byteOffset": 2252856,
      "componentType": 5126,
      "count": 24,
      "max": [
        104.36363983154297,
        285.4083251953125,
        -134.65330505371094
      ],
      "min": [
        -104.94256591796875,
        -404.65313720703125,
        -136.2315216064453
      ],
      "type": "VEC3"
    },
    {
      "bufferView": 2,
      "byteOffset": 2253144,
      "componentType": 5126,
      "count": 24,
      "max": [
        1.0,
        1.0,
        1.0
      ],
      "min": [
        -1.0,
        -1.0,
        -1.0
      ],
      "type": "VEC3"
    },
    {
      "bufferView": 1,
      "byteOffset": 423272,
      "componentType": 5126,
      "count": 24,
      "max": [
        1.0,
        1.0
      ],
      "min": [
        0.0,
        0.0
      ],
      "type": "VEC2"
    },
    {
      "bufferView": 0,
      "byteOffset": 826080,
      "componentType": 5125,
      "count": 36,
      "type": "SCALAR"
    },
    {
      "bufferView": 2,
      "byteOffset": 2253432,
      "componentType": 5126,
      "count": 5637,
      "max": [
        29.000234603881836,
        634.524658203125,
        196.1400146484375
      ],
      "min": [
        -28.997835159301758,
        617.333740234375,
        140.7866973876953
      ],
      "type": "VEC3"
    },
    {
      "bufferView": 2,
      "byteOffset": 2321076,
      "componentType": 5126,
      "count": 5637,
      "max": [
        1.0,
        1.0,
        1.0
      ],
      "min": [
        -1.0,
        -1.0,
        -1.0
      ],
      "type": "VEC3"
    },
    {
      "bufferView": 0,
      "byteOffset": 826224,
      "componentType": 5125,
      "count": 6888,
      "type": "SCALAR"
    },
    {
      "bufferView": 2,
      "byteOffset": 2388720,
      "componentType": 5126,
      "count": 19827,
      "max": [
        86.76656341552734,
        416.1776428222656,
        198.46041870117188
      ],
      "min": [
        -86.89263916015625,
        412.8673400878906,
        128.76495361328125
      ],
      "type": "VEC3"
    },
    {
      "bufferView": 2,
      "byteOffset": 2626644,
      "componentType": 5126,
      "count": 19827,
      "max": [
        1.0,
        1.0,
        1.0
      ],
      "min": [
        -1.0,
        -1.0,
        -1.0
      ],
      "type": "VEC3"
    },
    {
      "bufferView": 0,
      "byteOffset": 853776,
      "componentType": 5125,
      "count": 24621,
      "type": "SCALAR"
    },
    {
      "bufferView": 2,
      "byteOffset": 2864568,
      "componentType": 5126,
      "count": 65532,
      "max": [
        118.53843688964844,
        884.943359375,
        199.43199157714844
      ],
      "min": [
        -118.53843688964844,
        -2.2989163398742676,
        -140.3781280517578
      ],
      "type": "VEC3"
    },
    {
      "bufferView": 2,
      "byteOffset": 3650952,
      "componentType": 5126,
      "count": 65532,
      "max": [
        1.0,
        1.0,
        1.0
      ],
      "min": [
        -1.0,
        -1.0,
        -1.0
      ],
      "type": "VEC3"
    },
    {
      "bufferView": 0,
      "byteOffset": 952260,
      "componentType": 5125,
      "count": 102633,
      "type": "SCALAR"
    },
    {
      "bufferView": 2,
      "byteOffset": 4437336,
      "componentType": 5126,
      "count": 65534,
      "max": [
        118.53843688964844,
        884.943359375,
        199.43199157714844
      ],
      "min": [
        -118.53843688964844,
        -2.2989163398742676,
        -140.3781280517578
      ],
      "type": "VEC3"
    },
    {
      "bufferView": 2,
      "byteOffset": 5223744,
      "componentType": 5126,
      "count": 65534,
      "max": [
        1.0,
        1.0,
        1.0
      ],
      "min": [
        -1.0,
        -1.0,
        -1.0
      ],
      "type": "VEC3"
    },
    {
      "bufferView": 0,
      "byteOffset": 1362792,
      "componentType": 5125,
      "count": 89565,
      "type": "SCALAR"
    },
    {
      "bufferView": 2,
      "byteOffset": 6010152,
      "componentType": 5126,
      "count": 30939,
      "max": [
        118.53843688964844,
        884.943359375,
        199.43199157714844
      ],
      "min": [
        -118.53843688964844,
        -0.8621170520782471,
        -140.3689727783203
      ],
      "type": "VEC3"
    },
    {
      "bufferView": 2,
      "byteOffset": 6381420,
      "componentType": 5126,
      "count": 30939,
      "max": [
        1.0,
        1.0,
        1.0
      ],
      "min": [
        -1.0,
        -1.0,
        -1.0
      ],
      "type": "VEC3"
    },
    {
      "bufferView": 0,
      "byteOffset": 1721052,
      "componentType": 5125,
      "count": 43548,
      "type": "SCALAR"
    }
  ],
  "asset": {
    "extras": {
      "author": "adrian6377 (https://sketchfab.com/adrian6377)",
      "license": "COPYRIGHT TO adrian6377",
      "source": "https://sketchfab.com/3d-models/b824d2aadf534216895e450ff7ec30db",
      "title": "동패아이스업"
    },
    "generator": "Sketchfab-16.54.0",
    "version": "2.0"
  },
  "bufferViews": [
    {
      "buffer": 0,
      "byteLength": 1895244,
      "name": "floatBufferViews",
      "target": 34963
    },
    {
      "buffer": 0,
      "byteLength": 423464,
      "byteOffset": 1895244,
      "byteStride": 8,
      "name": "floatBufferViews",
      "target": 34962
    },
    {
      "buffer": 0,
      "byteLength": 6752688,
      "byteOffset": 2318708,
      "byteStride": 12,
      "name": "floatBufferViews",
      "target": 34962
    }
  ],
  "buffers": [
    {
      "byteLength": 9071396,
      "uri": "scene.bin"
    }
  ],
  "extensionsUsed": [
    "KHR_texture_transform"
  ],
  "images": [
    {
      "uri": "textures/material_baseColor.png"
    }
  ],
  "materials": [
    {
      "doubleSided": true,
      "name": "body",
      "pbrMetallicRoughness": {
        "baseColorFactor": [
          0.022903998576993965,
          0.022903998576993965,
          0.022903998576993965,
          1.0
        ],
        "metallicFactor": 0.4860967195328595,
        "roughnessFactor": 0.9524317153998911
      }
    },
    {
      "doubleSided": true,
      "name": "material",
      "pbrMetallicRoughness": {
        "baseColorTexture": {
          "extensions": {
            "KHR_texture_transform": {
              "offset": [
                0.014482290841201895,
                0
              ],
              "scale": [
                1.000214506052654,
                1.0368931556271417
              ]
            }
          },
          "index": 0
        },
        "metallicFactor": 0.5287635162316685,
        "roughnessFactor": 0.0
      }
    },
    {
      "doubleSided": true,
      "name": "material_2",
      "pbrMetallicRoughness": {
        "baseColorFactor": [
          0.008959033215757944,
          0.008959033215757944,
          0.008959033215757944,
          1.0
        ],
        "metallicFactor": 0.0,
        "roughnessFactor": 0.9524317153998911
      }
    },
    {
      "doubleSided": true,
      "name": "material_3",
      "pbrMetallicRoughness": {
        "baseColorFactor": [
          0.16460807970228097,
          0.16460807970228097,
          0.16460807970228097,
          1.0
        ],
        "roughnessFactor": 0.0
      }
    }
  ],
  "meshes": [
    {
      "name": "up_body_0",
      "primitives": [
        {
          "attributes": {
            "NORMAL": 1,
            "POSITION": 0,
            "TEXCOORD_0": 2
          },
          "indices": 3,
          "material": 0,
          "mode": 4
        }
      ]
    },
    {
      "name": "panel_LED_0",
      "primitives": [
        {
          "attributes": {
            "NORMAL": 5,
            "POSITION": 4,
            "TEXCOORD_0": 6
          },
          "indices": 7,
          "material": 1,
          "mode": 4
        }
      ]
    },
    {
      "name": "dawn_body_0",
      "primitives": [
        {
          "attributes": {
            "NORMAL": 9,
            "POSITION": 8,
            "TEXCOORD_0": 10
          },
          "indices": 11,
          "material": 0,
          "mode": 4
        }
      ]
    },
    {
      "name": "leg_leg_0",
      "primitives": [
        {
          "attributes": {
            "NORMAL": 13,
            "POSITION": 12
          },
          "indices": 14,
          "material": 2,
          "mode": 4
        }
      ]
    },
    {
      "name": "back_body_0",
      "primitives": [
        {
          "attributes": {
            "NORMAL": 16,
            "POSITION": 15,
            "TEXCOORD_0": 17
          },
          "indices": 18,
          "material": 0,
          "mode": 4
        }
      ]
    },
    {
      "name": "water_Mat_0",
      "primitives": [
        {
          "attributes": {
            "NORMAL": 20,
            "POSITION": 19
          },
          "indices": 21,
          "material": 3,
          "mode": 4
        }
      ]
    },
    {
      "name": "tray_Mat_0",
      "primitives": [
        {
          "attributes": {
            "NORMAL": 23,
            "POSITION": 22
          },
          "indices": 24,
          "material": 3,
          "mode": 4
        }
      ]
    },
    {
      "name": "body_body_0",
      "primitives": [
        {
          "attributes": {
            "NORMAL": 26,
            "POSITION": 25
          },
          "indices": 27,
          "material": 0,
          "mode": 4
        }
      ]
    },
    {
      "name": "body_body_0",
      "primitives": [
        {
          "attributes": {
            "NORMAL": 29,
            "POSITION": 28
          },
          "indices": 30,
          "material": 0,
          "mode": 4
        }
      ]
    },
    {
      "name": "body_body_0",
      "primitives": [
        {
          "attributes": {
            "NORMAL": 32,
            "POSITION": 31
          },
          "indices": 33,
          "material": 0,
          "mode": 4
        }
      ]
    }
  ],
  "nodes": [
    {
      "children": [
        1
      ],
      "matrix": [
        1.0,
        0.0,
        0.0,
        0.0,
        0.0,
        2.220446049250313e-16,
        -1.0,
        0.0,
        0.0,
        1.0,
        2.220446049250313e-16,
        0.0,
        0.0,
        0.0,
        0.0,
        1.0
      ],
      "name": "Sketchfab_model"
    },
    {
      "children": [
        2
      ],
      "matrix": [
        0.009999999776482582,
        0.0,
        0.0,
        0.0,
        0.0,
        0.0,
        0.009999999776482582,
        0.0,
        0.0,
        -0.009999999776482582,
        0.0,
        0.0,
        0.0,
        0.0,
        0.0,
        1.0
      ],
      "name": "8e9ebf5d34f247239330b93dc48e3d77.fbx"
    },
    {
      "children": [
        3,
        5,
        7,
        9,
        11,
        13,
        15,
        17,
        19
      ],
      "name": "RootNode"
    },
    {
      "children": [
        4
      ],
      "matrix": [
        -0.024906787018337706,
        -0.28045431312081104,
        -0.9595441783536375,
        0.0,
        -0.0072772718655665924,
        0.9598673753451223,
        -0.28035988133515205,
        0.0,
        0.9996632899504801,
        5.551115123125783e-17,
        -0.025948154566022508,
        0.0,
        -75.35602569580078,
        881.3577270507813,
        704.9926147460938,
        1.0
      ],
      "name": "CINEMA_4D_Editor"
    },
    {
      "name": "Object_4"
    },
    {
      "children": [
        6
      ],
      "matrix": [
        1.0,
        0.0,
        0.0,
        0.0,
        0.0,
        1.0,
        0.0,
        0.0,
        0.0,
        0.0,
        1.0,
        0.0,
        0.0,
        7.549543857574463,
        0.43502914905548096,
        1.0
      ],
      "name": "up"
    },
    {
      "mesh": 0,
      "name": "up_body_0"
    },
    {
      "children": [
        8
      ],
      "matrix": [
        1.0,
        0.0,
        0.0,
        0.0,
        0.0,
        1.0,
        0.0,
        0.0,
        0.0,
        0.0,
        1.0,
        0.0,
        0.0,
        780.40966796875,
        149.61758422851563,
        1.0
      ],
      "name": "panel"
    },
    {
      "mesh": 1,
      "name": "panel_LED_0"
    },
    {
      "children": [
        10
      ],
      "name": "dawn"
    },
    {
      "mesh": 2,
      "name": "dawn_body_0"
    },
    {
      "children": [
        12
      ],
      "name": "leg"
    },
    {
      "mesh": 3,
      "name": "leg_leg_0"
    },
    {
      "children": [
        14
      ],
      "matrix": [
        1.0,
        0.0,
        0.0,
        0.0,
        0.0,
        1.0,
        0.0,
        0.0,
        0.0,
        0.0,
        1.0,
        0.0,
        0.0,
        425.246337890625,
        0.0,
        1.0
      ],
      "name": "back"
    },
    {
      "mesh": 4,
      "name": "back_body_0"
    },
    {
      "children": [
        16
      ],
      "name": "water"
    },
    {
      "mesh": 5,
      "name": "water_Mat_0"
    },
    {
      "children": [
        18
      ],
      "name": "tray"
    },
    {
      "mesh": 6,
      "name": "tray_Mat_0"
    },
    {
      "children": [
        20,
        21,
        22
      ],
      "name": "body"
    },
    {
      "mesh": 7,
      "name": "body_body_0"
    },
    {
      "mesh": 8,
      "name": "body_body_0"
    },
    {
      "mesh": 9,
      "name": "body_body_0"
    }
  ],
  "samplers": [
    {
      "magFilter": 9729,
      "minFilter": 9987,
      "wrapS": 10497,
      "wrapT": 10497
    }
  ],
  "scene": 0,
  "scenes": [
    {
      "name": "Sketchfab_Scene",
      "nodes": [
        0
      ]
    }
  ],
  "textures": [
    {
      "sampler": 0,
      "source": 0
    }
  ]
}
