<svg width="60" height="60" viewBox="0 0 60 60" fill="none" xmlns="http://www.w3.org/2000/svg">
<path fill-rule="evenodd" clip-rule="evenodd" d="M3.85254 24.5886C11.7567 13.7794 26.6116 13.6976 36.6989 0.113037C45.0254 11.3104 44.232 25.5659 56.1479 33.7971C47.4366 43.0941 31.2434 43.0091 25.6174 55.1429C16.2555 49.0675 12.4788 32.2578 3.85254 24.5886Z" fill="#55D1F5"/>
<path fill-rule="evenodd" clip-rule="evenodd" d="M34.6829 2.58886C35.3742 1.81577 36.0451 0.991709 36.699 0.113037C45.0255 11.3104 44.232 25.5659 56.148 33.7971C47.4366 43.0941 31.2434 43.0091 25.6175 55.1429C24.7593 54.5844 23.9487 53.9374 23.1758 53.2154C29.1832 41.7455 44.0347 41.405 52.6812 34.1546C41.5041 26.4378 41.5109 13.415 34.6829 2.58886Z" fill="#3FC3E8"/>
<path fill-rule="evenodd" clip-rule="evenodd" d="M19.382 31.2874C20.3968 30.6983 21.6841 31.0115 22.2426 31.9753L19.8554 27.8444C19.2969 26.8772 19.6715 25.6069 20.6898 25.0212C21.7046 24.4355 22.9919 24.7454 23.5504 25.7091L22.1781 23.3355C21.6195 22.3683 21.9942 21.098 23.0124 20.5123C24.0273 19.9266 25.3146 20.2365 25.8731 21.2002L27.0344 23.2163C26.4759 22.2492 26.854 20.9788 27.8688 20.3931C28.8836 19.8074 30.171 20.1173 30.7295 21.0844C33.3892 25.6921 36.049 30.2964 38.7086 34.9041V26.9828C38.7086 25.8658 39.669 24.9531 40.8405 24.9531C42.0154 24.9531 42.9758 25.8658 42.9758 26.9828V42.747C44.539 46.2479 46.5924 49.4695 48.8946 52.5447L36.0827 59.9415C34.3936 55.0443 31.7066 49.9599 27.0308 46.7485C25.6788 45.8222 24.7015 44.7631 23.8807 43.3429L21.9191 39.9476L18.5476 34.1105C17.9892 33.1434 18.3637 31.8731 19.382 31.2874Z" fill="#F7C5B8"/>
<path d="M22.1914 31.8935L24.7728 36.3615C25.0044 36.7633 24.8682 37.2775 24.4663 37.5091C24.0645 37.7407 23.5503 37.6045 23.3187 37.2026L19.7974 31.1C20.693 30.8036 21.6874 31.117 22.1914 31.8935Z" fill="#EDA591"/>
<path d="M23.4786 25.5967L28.4847 34.2672C28.7129 34.6656 28.5767 35.1798 28.1748 35.408C27.773 35.6395 27.2621 35.5 27.0306 35.1015L21.105 24.8339C21.9904 24.541 22.9678 24.8406 23.4786 25.5967Z" fill="#EDA591"/>
<path d="M27.0338 23.2163L32.2953 32.3261C32.5235 32.728 32.3873 33.2388 31.9854 33.4703C31.5835 33.6985 31.0727 33.5623 30.8411 33.1604L23.4307 20.3249C24.3569 20.0185 25.3889 20.3658 25.8724 21.2002L27.0338 23.2163Z" fill="#EDA591"/>
<path d="M29.0296 1.74106H12.6898C12.2253 1.74106 11.8486 1.36442 11.8486 0.899888C11.8486 0.435356 12.2253 0.0587158 12.6898 0.0587158H29.0295C29.494 0.0587158 29.8707 0.435356 29.8707 0.899888C29.8707 1.36442 29.4941 1.74106 29.0296 1.74106ZM29.0296 3.21211H20.8904C20.4258 3.21211 20.0492 3.58876 20.0492 4.05329C20.0492 4.51782 20.4258 4.89446 20.8904 4.89446H29.0296C29.4941 4.89446 29.8708 4.51782 29.8708 4.05329C29.8708 3.58876 29.4941 3.21211 29.0296 3.21211Z" fill="#55D1F5"/>
<path fill-rule="evenodd" clip-rule="evenodd" d="M5.66797 9.3149C7.84074 8.6508 9.3868 7.17962 10.2042 4.77869C11.0216 7.17962 12.5642 8.6508 14.737 9.3149C12.5642 9.979 11.0216 11.4468 10.2042 13.8477C9.3868 11.4467 7.84063 9.97888 5.66797 9.3149Z" fill="#FFC861"/>
<path fill-rule="evenodd" clip-rule="evenodd" d="M34.5498 15.2199C37.8089 14.2255 40.1246 12.0187 41.3507 8.41907C42.5767 12.0187 44.8958 14.2255 48.1515 15.2199C44.8958 16.2144 42.5767 18.4211 41.3507 22.0242C40.1246 18.4211 37.8089 16.2144 34.5498 15.2199Z" fill="#FFC861"/>
</svg>
