<svg width="60" height="60" viewBox="0 0 60 60" fill="none" xmlns="http://www.w3.org/2000/svg">
<path d="M31.4861 16.6281L23.4844 26.6776V47.3268C23.4844 47.6559 23.3978 47.9793 23.2332 48.2643C23.0686 48.5494 22.8319 48.7861 22.5469 48.9506L15.3679 53.0954C15.0828 53.26 14.7595 53.3466 14.4303 53.3466C14.1012 53.3466 13.7779 53.26 13.4928 53.0954C13.2078 52.9308 12.9711 52.6941 12.8065 52.4091C12.642 52.124 12.5553 51.8007 12.5554 51.4716V26.6776L4.5538 16.6281H31.4861ZM35.3489 11.7765C35.7189 11.3118 35.9503 10.7521 36.0164 10.1618C36.0826 9.57149 35.9809 8.97448 35.7229 8.43939C35.4649 7.90431 35.0613 7.45286 34.5582 7.13693C34.0552 6.82101 33.4732 6.65342 32.8792 6.65344H3.16102C2.56699 6.65343 1.98501 6.82102 1.48197 7.13696C0.978929 7.4529 0.575239 7.90437 0.317295 8.43947C0.0593521 8.97458 -0.0423756 9.5716 0.023804 10.1619C0.0899836 10.7523 0.321384 11.3119 0.691412 11.7766L1.56833 12.8782H34.4719L35.3489 11.7765ZM35.4481 17.1356C35.4481 17.6329 35.6456 18.1098 35.9972 18.4615C36.3489 18.8131 36.8258 19.0106 37.3231 19.0106H41.9544V20.0825C41.9544 20.5798 42.152 21.0567 42.5036 21.4084C42.8552 21.76 43.3321 21.9575 43.8294 21.9575H49.7227C50.2199 21.9575 50.6969 21.76 51.0485 21.4084C51.4001 21.0567 51.5977 20.5798 51.5977 20.0825V19.0106H58.125C58.6223 19.0106 59.0992 18.8131 59.4508 18.4615C59.8025 18.1098 60 17.6329 60 17.1356C60 16.6383 59.8025 16.1614 59.4508 15.8098C59.0992 15.4582 58.6223 15.2606 58.125 15.2606H51.5977V14.1887C51.5977 13.6914 51.4001 13.2145 51.0485 12.8629C50.6969 12.5113 50.2199 12.3137 49.7227 12.3137H43.8294C43.3321 12.3137 42.8552 12.5113 42.5036 12.8629C42.152 13.2145 41.9544 13.6914 41.9544 14.1887V15.2606H37.3231C36.8258 15.2606 36.3489 15.4582 35.9972 15.8098C35.6456 16.1614 35.4481 16.6383 35.4481 17.1356ZM58.125 28.7878H41.0195V27.7331C41.0195 27.2358 40.822 26.7589 40.4703 26.4073C40.1187 26.0557 39.6418 25.8581 39.1445 25.8581H33.2851C32.7878 25.8581 32.3109 26.0557 31.9593 26.4073C31.6077 26.7589 31.4101 27.2358 31.4101 27.7331V28.7878H28.9757C28.4784 28.7878 28.0015 28.9854 27.6498 29.337C27.2982 29.6886 27.1007 30.1655 27.1007 30.6628C27.1007 31.1601 27.2982 31.637 27.6498 31.9886C28.0015 32.3403 28.4784 32.5378 28.9757 32.5378H31.4101V33.5925C31.4101 34.0898 31.6077 34.5667 31.9593 34.9183C32.3109 35.27 32.7878 35.4675 33.2851 35.4675H39.1445C39.6418 35.4675 40.1187 35.27 40.4703 34.9183C40.822 34.5667 41.0195 34.0898 41.0195 33.5925V32.5378H58.125C58.6223 32.5378 59.0992 32.3403 59.4508 31.9886C59.8025 31.637 60 31.1601 60 30.6628C60 30.1655 59.8025 29.6886 59.4508 29.337C59.0992 28.9854 58.6223 28.7878 58.125 28.7878ZM58.125 42.315H55.8281V41.2603C55.8281 40.763 55.6306 40.2861 55.279 39.9345C54.9273 39.5829 54.4504 39.3853 53.9531 39.3853H48.0938C47.5965 39.3853 47.1196 39.5829 46.7679 39.9345C46.4163 40.2861 46.2188 40.763 46.2188 41.2603V42.315H28.9757C28.4784 42.315 28.0015 42.5126 27.6498 42.8642C27.2982 43.2158 27.1007 43.6927 27.1007 44.19C27.1007 44.6873 27.2982 45.1642 27.6498 45.5158C28.0015 45.8675 28.4784 46.065 28.9757 46.065H46.2188V47.1197C46.2188 47.617 46.4163 48.0939 46.7679 48.4455C47.1196 48.7971 47.5965 48.9947 48.0938 48.9947H53.9531C54.4504 48.9947 54.9273 48.7971 55.279 48.4455C55.6306 48.0939 55.8281 47.617 55.8281 47.1197V46.065H58.125C58.6223 46.065 59.0992 45.8675 59.4508 45.5158C59.8025 45.1642 60 44.6873 60 44.19C60 43.6927 59.8025 43.2158 59.4508 42.8642C59.0992 42.5126 58.6223 42.315 58.125 42.315Z" fill="url(#paint0_linear_26_164)"/>
<defs>
<linearGradient id="paint0_linear_26_164" x1="-1.89984" y1="12.2617" x2="58.5681" y2="47.1728" gradientUnits="userSpaceOnUse">
<stop stop-color="#00F18F"/>
<stop offset="1" stop-color="#00A1FB"/>
</linearGradient>
</defs>
</svg>
