<svg width="60" height="60" viewBox="0 0 60 60" fill="none" xmlns="http://www.w3.org/2000/svg">
<g clip-path="url(#clip0_26_132)">
<path d="M30 60C46.5685 60 60 46.5685 60 30C60 13.4315 46.5685 0 30 0C13.4315 0 0 13.4315 0 30C0 46.5685 13.4315 60 30 60Z" fill="#7ED7F5"/>
<path d="M33.8182 59.7593C46.0714 58.2029 56.0177 49.255 59.0478 37.5259L35.9804 14.4585L35.3135 14.9079L33.3999 12.9943L24.0195 20.3417L28.3715 24.6937L24.5367 36.2925L17.5453 29.3011L11.8674 31.2943L20.2984 39.7252L17.883 43.8241L33.8182 59.7593Z" fill="#2FBFEF"/>
<path d="M30 16.6993L24.7525 18.4732V22.301C22.3988 23.9545 20.8601 26.6898 20.8601 29.7847C20.8601 34.8326 24.9522 38.9245 29.9999 38.9245L34.9189 28.4126L30 16.6993Z" fill="#FFCC00"/>
<path d="M35.2475 22.301V18.4732L30 16.6993V38.9245C35.0479 38.9245 39.1398 34.8325 39.1398 29.7847C39.1398 26.6897 37.6012 23.9544 35.2475 22.301Z" fill="#FF9E22"/>
<path d="M31.6405 16.3396L29.9999 19.3756L25.23 16.3396C25.23 13.7052 27.3655 11.5697 29.9999 11.5697L31.6405 16.3396Z" fill="#636DEC"/>
<path d="M34.7696 16.3396L29.9998 19.3756V11.5697C32.6341 11.5697 34.7696 13.7052 34.7696 16.3396Z" fill="#343DC0"/>
<path d="M30 18.6308H25.1914L24.0195 18.085V16.7151L25.1914 16.1417H30L32.6968 17.3863L30 18.6308Z" fill="#636DEC"/>
<path d="M34.8086 18.6308H30V16.1417H34.8086L35.9804 16.7151V18.085L34.8086 18.6308Z" fill="#343DC0"/>
<path d="M30 16.7152H24.0195V14.4585H30L32.6968 15.7626L30 16.7152Z" fill="#343DC0"/>
<path d="M30 14.4585H35.9804V16.7152H30V14.4585Z" fill="#0D07B0"/>
<path d="M30 20.3418H24.0195V18.0851H30L32.6968 19.0376L30 20.3418Z" fill="#343DC0"/>
<path d="M30 18.0851H35.9804V20.3418H30V18.0851Z" fill="#0D07B0"/>
<path d="M30 48.4303H29.0034V42.7524H30L30.8423 45.5914L30 48.4303Z" fill="#FFCC00"/>
<path d="M30 42.7524H30.9966V48.4303H30V42.7524Z" fill="#FF9E22"/>
<path d="M11.8674 29.3013H17.5453V31.2944H11.8674V29.3013Z" fill="#FFCC00"/>
<path d="M16.4675 42.4122L20.4818 38.398L21.8909 39.8071L17.8767 43.8214L16.4675 42.4122Z" fill="#FFCC00"/>
<path d="M42.4548 29.3013H48.1327V31.2944H42.4548V29.3013Z" fill="#FF9E22"/>
<path d="M38.0938 39.8096L39.5029 38.4004L43.5171 42.4147L42.108 43.8238L38.0938 39.8096Z" fill="#FF9E22"/>
</g>
<defs>
<clipPath id="clip0_26_132">
<rect width="60" height="60" fill="white"/>
</clipPath>
</defs>
</svg>
