<svg width="60" height="60" viewBox="0 0 60 60" fill="none" xmlns="http://www.w3.org/2000/svg">
<g clip-path="url(#clip0_26_67)">
<path d="M0 14.1797H8.90625V17.6953H0V14.1797Z" fill="#405580"/>
<path d="M42.3047 0H45.8203V8.90625H42.3047V0Z" fill="#283366"/>
<path d="M51.0938 28.2422H60V31.7578H51.0938V28.2422Z" fill="#283366"/>
<path d="M51.0938 42.3047H60V45.8203H51.0938V42.3047Z" fill="#283366"/>
<path d="M42.3047 51.0938H45.8203V60H42.3047V51.0938Z" fill="#283366"/>
<path d="M0 42.3047H8.90625V45.8203H0V42.3047Z" fill="#405580"/>
<path d="M0 28.2422H8.90625V31.7578H0V28.2422Z" fill="#405580"/>
<path d="M14.1797 51.0938H17.6953V60H14.1797V51.0938Z" fill="#405580"/>
<path d="M51.0938 14.1797H60V17.6953H51.0938V14.1797Z" fill="#283366"/>
<path d="M28.2422 51.0938H31.7578V60H28.2422V51.0938Z" fill="#405580"/>
<path d="M30 51.0938H31.7578V60H30V51.0938Z" fill="#283366"/>
<path d="M28.2422 0H31.7578V8.90625H28.2422V0Z" fill="#405580"/>
<path d="M30 0H31.7578V8.90625H30V0Z" fill="#283366"/>
<path d="M14.1797 0H17.6953V8.90625H14.1797V0Z" fill="#405580"/>
<path d="M52.8516 17.6953V7.14844H21.2109C19.2693 7.14844 17.6953 8.72238 17.6953 10.6641V14.1797H10.6641C8.72238 14.1797 7.14844 15.7536 7.14844 17.6953V24.7266L9.64465 26.4844L7.14844 28.2422V38.7891L9.64465 40.5469L7.14844 42.3047V52.8516H38.7891C40.7307 52.8516 42.3047 51.2776 42.3047 49.3359V45.8203H49.3359C51.2776 45.8203 52.8516 44.2464 52.8516 42.3047V35.2734L46.8397 33.5156L52.8516 31.7578V21.2109L50.3554 19.4531L52.8516 17.6953Z" fill="#80AAFF"/>
<path d="M52.8516 7.14844H30V52.8516H38.7891C40.7307 52.8516 42.3047 51.2774 42.3047 49.3359V45.8203H49.3359C51.2776 45.8203 52.8516 44.2461 52.8516 42.3047V35.2734L46.8397 33.5156L52.8516 31.7578V21.2109L50.3554 19.4531L52.8516 17.6953V7.14844Z" fill="#4D88FF"/>
<path d="M21.2109 17.6953H7.14844V7.14844H21.2109V17.6953Z" fill="#405580"/>
<path d="M52.8516 52.8516H38.7891V42.3047H52.8516V52.8516Z" fill="#283366"/>
<path d="M28.7696 23.1797L23.7071 28.2422H7.14844V24.7266H22.2304L26.2734 20.6835L28.7696 23.1797Z" fill="#E6EEFF"/>
<path d="M52.8517 31.7578V35.2734H37.7698L33.7267 39.3163L31.2305 36.8203L36.293 31.7578H52.8517Z" fill="#CCDDFF"/>
<path d="M52.8514 17.6953V21.2109H44.8008L38.2615 27.7147L35.8008 25.2538L43.324 17.6953H52.8514Z" fill="#CCDDFF"/>
<path d="M24.1991 34.746L16.6759 42.3047H7.14844V38.7891H15.1991L21.7384 32.285L24.1991 34.746Z" fill="#E6EEFF"/>
<path d="M27.5083 30L29.9936 27.5147L32.4789 30L29.9936 32.4853L27.5083 30Z" fill="#E6EEFF"/>
<path d="M32.4857 29.9999L30 27.5143V32.4856L32.4857 29.9999Z" fill="#CCDDFF"/>
<path d="M30 45.8203C27.0921 45.8203 24.7266 43.4548 24.7266 40.5469C24.7266 37.639 27.0921 35.2734 30 35.2734C32.9079 35.2734 35.2734 37.639 35.2734 40.5469C35.2734 43.4548 32.9079 45.8203 30 45.8203Z" fill="#E6EEFF"/>
<path d="M35.2734 40.5469C35.2734 37.639 32.9079 35.2734 30 35.2734V45.8203C32.9079 45.8203 35.2734 43.4548 35.2734 40.5469Z" fill="#CCDDFF"/>
<path d="M30 24.7266C27.0921 24.7266 24.7266 22.361 24.7266 19.4531C24.7266 16.5452 27.0921 14.1797 30 14.1797C32.9079 14.1797 35.2734 16.5452 35.2734 19.4531C35.2734 22.361 32.9079 24.7266 30 24.7266Z" fill="#E6EEFF"/>
<path d="M35.2734 19.4531C35.2734 16.5452 32.9079 14.1797 30 14.1797V24.7266C32.9079 24.7266 35.2734 22.361 35.2734 19.4531Z" fill="#CCDDFF"/>
</g>
<defs>
<clipPath id="clip0_26_67">
<rect width="60" height="60" fill="white"/>
</clipPath>
</defs>
</svg>
