<svg width="60" height="60" viewBox="0 0 60 60" fill="none" xmlns="http://www.w3.org/2000/svg">
<path fill-rule="evenodd" clip-rule="evenodd" d="M58.1251 54.8028V53.8418C58.1251 49.2809 54.6645 45.5602 50.4224 45.5602H45.3282C41.086 45.5602 37.6255 49.2809 37.6255 53.8418V54.8028C37.6255 55.9641 38.5724 56.9121 39.7349 56.9121H56.0157C57.1782 56.911 58.1251 55.9641 58.1251 54.8028Z" fill="#2FB1D4"/>
<path fill-rule="evenodd" clip-rule="evenodd" d="M47.8793 31.2645C49.4566 31.2645 50.7 31.6876 51.7699 32.7762C54.1851 35.2337 53.4059 42.6106 47.8758 42.6106C42.3434 42.6106 41.5641 35.2337 43.9793 32.7762C45.0551 31.6829 46.2973 31.2645 47.8793 31.2645Z" fill="#F9D0B4"/>
<path fill-rule="evenodd" clip-rule="evenodd" d="M22.3734 54.8028V53.8418C22.3734 49.2809 18.9129 45.5602 14.6707 45.5602H9.57773C5.33555 45.5602 1.875 49.2809 1.875 53.8418V54.8028C1.875 55.9641 2.82187 56.9121 3.98438 56.9121H20.2652C21.4266 56.911 22.3734 55.9641 22.3734 54.8028Z" fill="#2FB1D4"/>
<path fill-rule="evenodd" clip-rule="evenodd" d="M12.1288 31.2645C13.7061 31.2645 14.9495 31.6876 16.0194 32.7762C18.4347 35.2337 17.6554 42.6106 12.1253 42.6106C6.59287 42.6106 5.81357 35.2337 8.2288 32.7762C9.30341 31.6829 10.5456 31.2645 12.1288 31.2645Z" fill="#F9D0B4"/>
<path fill-rule="evenodd" clip-rule="evenodd" d="M45.851 56.9109V52.8563C45.851 47.5418 42.34 43.0219 37.5201 41.4961L30.0002 55.4648L22.4803 41.4973C17.6604 43.023 14.1494 47.543 14.1494 52.8574V56.9121H45.851V56.9109Z" fill="#2FB1D4"/>
<path fill-rule="evenodd" clip-rule="evenodd" d="M30.006 21.968C32.2935 21.968 34.0959 22.5809 35.6486 24.1606C39.1513 27.7243 38.0205 38.4211 30.0013 38.4211C21.9787 38.4211 20.849 27.7243 24.3517 24.1606C25.9091 22.575 27.7115 21.968 30.006 21.968Z" fill="#F9D0B4"/>
<path fill-rule="evenodd" clip-rule="evenodd" d="M30.1384 15.1664C21.8099 15.1664 15.0341 21.9422 15.0341 30.2707C15.0341 30.5004 15.0411 30.7301 15.0517 30.9597L15.0845 31.6804L14.413 31.4179C13.6853 31.1332 12.9083 31.0301 12.129 31.0301C10.5224 31.0301 9.19697 31.4566 8.0626 32.6109C7.56221 33.1195 7.22471 33.7922 7.01377 34.4683L6.90596 34.814L4.3583 34.6957C3.70322 34.6652 3.18994 34.1261 3.18994 33.4711V27.0715C3.18994 26.4164 3.70322 25.8773 4.3583 25.8468L8.22432 25.6676C8.96611 25.6336 9.5708 25.1554 9.77471 24.4406C10.2165 22.8961 10.8364 21.4019 11.6169 19.998C11.9778 19.3488 11.8888 18.5824 11.3884 18.0328L8.77978 15.1711C8.33799 14.6871 8.35557 13.9418 8.81963 13.4789L13.3454 8.9531C13.8083 8.49021 14.5536 8.47263 15.0376 8.91443L17.9005 11.523C18.4501 12.0234 19.2153 12.1125 19.8657 11.7515C21.2696 10.9711 22.7638 10.3511 24.3083 9.90935C25.022 9.70544 25.5013 9.10076 25.5353 8.35896L25.7146 4.49294C25.745 3.83787 26.2829 3.32458 26.9392 3.32458H33.3388C33.9938 3.32458 34.5329 3.83904 34.5634 4.49294L34.7427 8.35896C34.7767 9.10076 35.256 9.70544 35.9696 9.90935C37.5142 10.3511 39.0083 10.9711 40.4122 11.7515C41.0614 12.1125 41.8278 12.0234 42.3774 11.523L45.2392 8.9156C45.7231 8.4738 46.4685 8.49138 46.9314 8.95427L51.456 13.4801C51.9188 13.9429 51.9364 14.6883 51.4958 15.1722L48.8872 18.034C48.3868 18.5836 48.2978 19.35 48.6587 19.9992C49.4392 21.4031 50.0603 22.8972 50.5009 24.4418C50.7048 25.1554 51.3095 25.6336 52.0513 25.6687L55.9173 25.848C56.5724 25.8785 57.0856 26.4164 57.0856 27.0726V33.4722C57.0856 34.1285 56.5724 34.6664 55.9173 34.6968L53.0978 34.8281L52.9899 34.4824C52.779 33.8027 52.4403 33.1254 51.9376 32.6144C50.8044 31.4613 49.4837 31.0336 47.8794 31.0336C47.1903 31.0336 46.5001 31.1133 45.8438 31.3301L45.2028 31.5422L45.2286 30.8672C45.2368 30.6703 45.2415 30.4722 45.2415 30.2742C45.2415 21.9433 38.4657 15.1664 30.1384 15.1664Z" fill="#FEDF30"/>
<path fill-rule="evenodd" clip-rule="evenodd" d="M32.3166 50.6684L29.9998 54.9703L27.7064 50.7105L29.0377 45.8508C29.224 45.1711 29.1021 44.4879 28.692 43.9148L26.7373 41.1797H33.2588L31.3088 43.909C30.8963 44.4867 30.7756 45.1746 30.9666 45.8578L32.3166 50.6684Z" fill="#FF5A5A"/>
<path fill-rule="evenodd" clip-rule="evenodd" d="M36.075 33.5871C35.4281 35.1305 33.7793 37.718 30.0012 37.718C26.2219 37.718 24.5719 35.1293 23.925 33.586C22.6301 30.4981 23.0473 26.4914 24.8543 24.6528C26.2008 23.2828 27.7898 22.6711 30.007 22.6711C32.2148 22.6711 33.8004 23.2828 35.148 24.6528C36.9527 26.4903 37.3699 30.4981 36.075 33.5871ZM23.85 23.6672C21.6445 25.9102 21.1078 30.5063 22.6277 34.1297C23.9777 37.35 26.5969 39.1231 30.0012 39.1231C33.4043 39.1231 36.0223 37.35 37.3723 34.1297C38.8922 30.5051 38.3543 25.909 36.15 23.666C34.5387 22.0278 32.5875 21.2637 30.007 21.2637C27.4172 21.2649 25.4613 22.0278 23.85 23.6672ZM57.4219 54.8028C57.4219 55.5774 56.7914 56.209 56.0156 56.209H46.5539V52.8574C46.5539 50.516 45.9164 48.2707 44.7047 46.2961C44.9121 46.2762 45.1195 46.2633 45.3281 46.2633H50.4223C54.2812 46.2633 57.4219 49.6629 57.4219 53.8418V54.8028ZM45.1477 56.2078V52.8563C45.1477 48.1406 42.2402 43.991 37.8551 42.3551L30.6187 55.7965C30.4957 56.0239 30.2578 56.1668 30 56.1668C29.7422 56.1668 29.5031 56.025 29.3813 55.7965L22.1449 42.3551C17.7598 43.991 14.8535 48.1406 14.8535 52.8563V56.2078H19.9758V52.4918C19.9758 52.1039 20.291 51.7887 20.6789 51.7887C21.0668 51.7887 21.382 52.1039 21.382 52.4918V56.2078H38.6203V52.4918C38.6203 52.1039 38.9355 51.7887 39.3234 51.7887C39.7113 51.7887 40.0266 52.1039 40.0266 52.4918V56.2078H45.1477ZM13.4461 52.8574V56.209H3.98438C3.20859 56.209 2.57812 55.5785 2.57812 54.8028V53.8418C2.57812 49.6629 5.71758 46.2633 9.57773 46.2633H14.6719C14.8805 46.2633 15.0879 46.2762 15.2953 46.2961C14.0836 48.2707 13.4461 50.516 13.4461 52.8574ZM27.6504 41.6485H32.3496L30.9293 43.636C30.4336 44.3285 30.2883 45.1629 30.518 45.9832L31.8141 50.6121L30 53.9813L28.2082 50.6531L29.4902 45.9739C29.7141 45.1582 29.5664 44.3297 29.0742 43.6406L27.6504 41.6485ZM50.4223 44.8571H45.3281C44.8148 44.8571 44.3027 44.9074 43.8 45.0071C42.2391 43.0547 40.1004 41.577 37.732 40.8281C37.4098 40.7262 37.0605 40.868 36.9012 41.1656L32.775 48.8297L31.8727 45.6059C31.7566 45.1922 31.8246 44.8055 32.0742 44.4551L34.2891 41.3555C34.4426 41.141 34.4625 40.8598 34.343 40.6254C34.2223 40.391 33.9809 40.2434 33.7172 40.2434H26.284C26.0203 40.2434 25.7789 40.391 25.6582 40.6254C25.5375 40.8598 25.5586 41.141 25.7121 41.3555L27.9316 44.461C28.1801 44.809 28.248 45.1934 28.1355 45.6047L27.2426 48.8602L23.1 41.1656C22.9395 40.868 22.5914 40.7262 22.2691 40.8281C19.9008 41.5781 17.7621 43.0559 16.2012 45.0071C15.6996 44.9074 15.1875 44.8571 14.673 44.8571H9.57773C4.94297 44.8571 1.17188 48.8871 1.17188 53.8418V54.8028C1.17188 56.3531 2.43398 57.6153 3.98438 57.6153H56.0156C57.566 57.6153 58.8281 56.3543 58.8281 54.8028V53.8418C58.8281 48.8871 55.057 44.8571 50.4223 44.8571ZM3.65859 27.0715V33.4711C3.65859 33.8766 3.975 34.2082 4.38047 34.227L6.56602 34.3289C6.81797 33.5227 7.2082 32.8125 7.72734 32.2828C8.88164 31.1086 10.2797 30.5614 12.1277 30.5614C13.0488 30.5614 13.8586 30.6985 14.5816 30.9821C14.5711 30.7453 14.5641 30.5086 14.5641 30.2707C14.5641 21.6844 21.5496 14.6977 30.1371 14.6977C38.7234 14.6977 45.7102 21.6844 45.7102 30.2707C45.7102 30.4735 45.7043 30.6774 45.6961 30.8813C46.3488 30.6656 47.0707 30.5614 47.8793 30.5614C49.7215 30.5614 51.1172 31.1086 52.2715 32.2828C52.793 32.8149 53.1855 33.5297 53.4363 34.3407L55.8937 34.227C56.2992 34.2082 56.6156 33.8766 56.6156 33.4711V27.0715C56.6156 26.666 56.2992 26.3344 55.8937 26.3156L52.0277 26.1364C51.0855 26.093 50.3074 25.4778 50.0484 24.5707C49.6172 23.0637 49.0113 21.6024 48.2473 20.2278C47.7879 19.4028 47.9027 18.4172 48.5391 17.7188L51.1477 14.8571C51.4207 14.5571 51.4102 14.0989 51.123 13.8117L46.5984 9.28596C46.3113 9.00002 45.8531 8.98831 45.5531 9.26252L42.6914 11.8699C41.993 12.5063 41.0086 12.6211 40.1824 12.1617C38.8078 11.3977 37.3465 10.7918 35.8383 10.3606C34.9301 10.1004 34.316 9.32346 34.2715 8.38127L34.0922 4.51526C34.0734 4.10979 33.7406 3.79338 33.3363 3.79338H26.9367C26.5312 3.79338 26.1996 4.10979 26.1809 4.51526L26.0016 8.38127C25.957 9.32346 25.343 10.1004 24.4359 10.3606C22.9277 10.7918 21.4664 11.3977 20.0918 12.1617C19.2656 12.6211 18.2812 12.5063 17.5828 11.8699L14.7199 9.26135C14.4199 8.98831 13.9617 8.99885 13.6746 9.28479L9.14883 13.8106C8.86172 14.0965 8.85117 14.5559 9.12422 14.8559L11.7328 17.7176C12.3691 18.416 12.484 19.4004 12.0246 20.2266C11.2605 21.6 10.6547 23.0614 10.2234 24.5696C9.96445 25.4766 9.1875 26.0918 8.24414 26.1352L4.37813 26.3145C3.975 26.3332 3.65859 26.666 3.65859 27.0715ZM51.8637 39.1934C51.3445 40.4321 50.2313 41.9086 47.8758 41.9086C45.5191 41.9086 44.4059 40.4321 43.8867 39.1934C43.0395 37.1719 43.3125 34.4602 44.482 33.2696C45.3785 32.3578 46.3945 31.9688 47.8793 31.9688C49.3383 31.9688 50.3836 32.3696 51.2684 33.2696C52.4391 34.459 52.7109 37.1719 51.8637 39.1934ZM16.1133 39.1934C15.5941 40.4321 14.4809 41.9086 12.1254 41.9086C9.76875 41.9086 8.65547 40.4321 8.13633 39.1934C7.28906 37.1719 7.56211 34.4602 8.73164 33.2696C9.62813 32.3578 10.6441 31.9688 12.1301 31.9688C13.5891 31.9688 14.6355 32.3696 15.5191 33.2696C16.6875 34.459 16.9605 37.1719 16.1133 39.1934ZM4.31484 35.6321L6.27891 35.7235C6.13477 37.043 6.30938 38.4739 6.83906 39.7371C7.79297 42.0106 9.71953 43.3149 12.1254 43.3149C14.5301 43.3149 16.4566 42.0106 17.4094 39.7371C18.4887 37.1625 18.0984 33.8883 16.5211 32.284C16.3723 32.1328 16.2188 31.9922 16.0617 31.861C16.0031 31.336 15.9715 30.8028 15.9715 30.2719C15.9715 22.4602 22.3266 16.1051 30.1383 16.1051C37.95 16.1051 44.3051 22.4602 44.3051 30.2719C44.3051 30.7242 44.2828 31.1801 44.2395 31.6301C43.9746 31.8223 43.7215 32.0379 43.4801 32.284C41.9027 33.8895 41.5125 37.1625 42.5918 39.7371C43.5457 42.0106 45.4723 43.3149 47.8781 43.3149C50.284 43.3149 52.2094 42.0106 53.1621 39.7371C53.6895 38.4785 53.8652 37.0524 53.7234 35.7364L55.9617 35.6332C57.1184 35.5793 58.0242 34.6301 58.0242 33.4723V27.0727C58.0242 25.9149 57.1184 24.9656 55.9617 24.9117L52.0957 24.7324C51.7605 24.7172 51.4957 24.5063 51.4031 24.184C50.9426 22.575 50.2957 21.0129 49.4777 19.5446C49.3148 19.2516 49.3535 18.9153 49.5797 18.6668L52.1883 15.8039C52.9676 14.9485 52.9383 13.636 52.1191 12.818L47.5934 8.29338C46.7754 7.47424 45.4629 7.44377 44.6063 8.22424L41.7445 10.8317C41.4961 11.0578 41.1598 11.0965 40.8668 10.9336C39.3984 10.1168 37.8375 9.46995 36.2262 9.0094C35.9039 8.91682 35.693 8.65081 35.6777 8.31682L35.4984 4.45081C35.4445 3.29417 34.4953 2.38831 33.3375 2.38831H26.9379C25.7801 2.38831 24.8309 3.29417 24.777 4.45081L24.5977 8.31682C24.5824 8.65198 24.3715 8.91682 24.0492 9.0094C22.4379 9.46995 20.877 10.118 19.4086 10.9336C19.1156 11.0965 18.7793 11.0578 18.5309 10.8317L15.668 8.22307C14.8125 7.4426 13.5 7.47307 12.682 8.29221L8.15625 12.8168C7.33711 13.636 7.30664 14.9473 8.08711 15.8028L10.6957 18.6656C10.9219 18.9141 10.9605 19.2504 10.7977 19.5434C9.98086 21.0106 9.33398 22.5715 8.87344 24.1828C8.78086 24.5051 8.51602 24.7149 8.18086 24.7313L4.31484 24.9106C3.1582 24.9645 2.25234 25.9137 2.25234 27.0715V33.4711C2.25234 34.6289 3.1582 35.5781 4.31484 35.6321Z" fill="#222124"/>
</svg>
