<svg width="60" height="60" viewBox="0 0 60 60" fill="none" xmlns="http://www.w3.org/2000/svg">
<path d="M22.181 20.8383C20.2227 22.7891 20.2165 25.9577 22.1673 27.916L30.0003 35.7795L37.8332 27.916C39.784 25.9577 39.7778 22.7891 37.8195 20.8383C35.8613 18.8878 32.6925 18.8939 30.7418 20.852L30.0001 21.5968L29.2585 20.852C27.3079 18.894 24.1391 18.8878 22.181 20.8383Z" fill="#FE6A16"/>
<path d="M30.0004 35.7795L37.8333 27.916C39.7841 25.9577 39.7779 22.7891 37.8196 20.8383C35.8614 18.8878 32.6926 18.8939 30.7419 20.852L30.0002 21.5968L30.0004 35.7795Z" fill="#F24500"/>
<path d="M46.9126 39.929C43.1655 45.2422 36.9816 48.7194 30.0001 48.7194C23.0187 48.7194 16.8348 45.242 13.0876 39.929L6.64111 43.6509C7.65512 45.161 8.82311 46.5836 10.1382 47.8987C15.4436 53.204 22.4973 56.1258 30.0002 56.1258C37.5032 56.1258 44.5568 53.204 49.8622 47.8987C51.1773 46.5836 52.3453 45.1611 53.3591 43.6509L46.9126 39.929Z" fill="#64E1DC"/>
<path d="M46.9127 39.929C43.1656 45.2422 36.9817 48.7194 30.0002 48.7194C30.0002 52.138 30.0002 52.4226 30.0002 56.1256C37.5032 56.1256 44.5568 53.2038 49.8622 47.8984C51.1773 46.5834 52.3452 45.1608 53.3591 43.6507L46.9127 39.929Z" fill="#00C8C8"/>
<path d="M30.0006 60C34.1851 60 37.5774 56.6077 37.5774 52.4232C37.5774 48.2387 34.1851 44.8464 30.0006 44.8464C25.8161 44.8464 22.4238 48.2387 22.4238 52.4232C22.4238 56.6077 25.8161 60 30.0006 60Z" fill="#C48958"/>
<path d="M37.5767 52.4227C37.5767 56.6071 34.1846 59.9992 30.0002 59.9992C30.0002 52.4227 30.0002 49.7627 30.0002 44.8463C34.1845 44.8463 37.5767 48.2384 37.5767 52.4227Z" fill="#B27A49"/>
<path d="M31.8433 7.44388C38.3181 8.03239 44.4216 11.6491 47.9124 17.6952C51.4031 23.7413 51.4835 30.8354 48.7558 36.7372L55.2023 40.4591C56.003 38.826 56.651 37.103 57.1323 35.3068C59.0741 28.0596 58.0777 20.49 54.3262 13.9922C50.5747 7.49451 44.5175 2.84656 37.2703 0.904675C35.474 0.423393 33.6579 0.123162 31.8433 0V7.44388Z" fill="#FE6A16"/>
<path d="M31.8433 7.44388C38.3181 8.03239 44.4216 11.6491 47.9124 17.6952C50.873 15.9859 51.1194 15.8437 54.3263 13.992C50.5747 7.49439 44.5175 2.84656 37.2703 0.904675C35.474 0.423393 33.6579 0.123162 31.8433 0V7.44388Z" fill="#F24500"/>
<path d="M51.1195 23.42C55.304 23.42 58.6963 20.0278 58.6963 15.8433C58.6963 11.6587 55.304 8.26648 51.1195 8.26648C46.935 8.26648 43.5427 11.6587 43.5427 15.8433C43.5427 20.0278 46.935 23.42 51.1195 23.42Z" fill="#FFCDBE"/>
<path d="M47.3309 9.28232C50.9547 7.19008 55.5884 8.43179 57.6806 12.0555C51.1192 15.8437 48.8156 17.1737 44.5577 19.6319C42.4657 16.0081 43.7072 11.3746 47.3309 9.28232Z" fill="#FFBEAA"/>
<path d="M11.2448 36.7371C8.51702 30.8354 8.5974 23.7412 12.0881 17.6952C15.5789 11.6492 21.6823 8.03239 28.1573 7.44388V0C26.3425 0.123045 24.5265 0.423276 22.7301 0.904675C15.483 2.84645 9.42579 7.49427 5.67432 13.992C1.92285 20.4897 0.926181 28.0593 2.86819 35.3066C3.34959 37.1028 3.99751 38.8258 4.79824 40.4589L11.2448 36.7371Z" fill="#4A7AFF"/>
<path d="M11.2448 36.7371C8.51702 30.8354 8.59741 23.7412 12.0881 17.6953C9.12756 15.986 8.88112 15.8437 5.67421 13.9921C1.92285 20.4898 0.926186 28.0594 2.86819 35.3067C3.34959 37.1029 3.99751 38.8259 4.79824 40.459L11.2448 36.7371Z" fill="#0053BF"/>
<path d="M8.8817 23.42C13.0662 23.42 16.4585 20.0278 16.4585 15.8433C16.4585 11.6587 13.0662 8.26648 8.8817 8.26648C4.69717 8.26648 1.30493 11.6587 1.30493 15.8433C1.30493 20.0278 4.69717 23.42 8.8817 23.42Z" fill="#F2D1A5"/>
<path d="M5.09319 22.405C1.46945 20.3128 0.227869 15.6793 2.31999 12.0554C8.88134 15.8436 11.185 17.1736 15.4428 19.6318C13.3506 23.2556 8.71693 24.4973 5.09319 22.405Z" fill="#F2BB88"/>
</svg>
