<svg xmlns="http://www.w3.org/2000/svg" xmlns:xlink="http://www.w3.org/1999/xlink" width="91" height="26" viewBox="0 0 91 26">
    <defs>
        <clipPath id="clip-path">
            <rect id="사각형_9052" width="20.694" height="24.026" fill="#0083db"/>
        </clipPath>
    </defs>
    <g id="그룹_22622" transform="translate(-124.336 123)">
        <text id="ICEUP" transform="translate(151.336 -102)" fill="#444" font-size="22" font-family="Pretendard-SemiBold, Pretendard" font-weight="600"><tspan x="0" y="0">ICEUP</tspan></text>
        <g id="그룹_22616" transform="translate(124.336 -123)">
            <g id="그룹_22615" clip-path="url(#clip-path)">
                <path id="패스_4536" d="M9.582,24.027a2.738,2.738,0,0,1-1.418-.4L1.418,19.562A2.994,2.994,0,0,1,0,17V6.107A1.336,1.336,0,0,1,1.307,4.743,1.337,1.337,0,0,1,2.614,6.107V17a.235.235,0,0,0,.111.2l6.745,4.064a.2.2,0,0,0,.222,0,.22.22,0,0,0,.111-.2V12.04q0-.025,0-.05V2.965A2.955,2.955,0,0,1,11.223.4,2.708,2.708,0,0,1,14.06.4l5.216,3.142a2.955,2.955,0,0,1,1.418,2.563,2.955,2.955,0,0,1-1.418,2.563L12.419,12.8v8.261A2.955,2.955,0,0,1,11,23.626a2.741,2.741,0,0,1-1.418.4m3.059-21.3a.215.215,0,0,0-.111.033.221.221,0,0,0-.111.2V9.651l5.549-3.343a.237.237,0,0,0,0-.4L12.752,2.764a.216.216,0,0,0-.111-.033" transform="translate(0 0)" fill="#0083db"/>
                <path id="패스_4537" d="M9.582,24.027a2.738,2.738,0,0,1-1.418-.4L1.418,19.562A2.994,2.994,0,0,1,0,17V6.107A1.336,1.336,0,0,1,1.307,4.743,1.337,1.337,0,0,1,2.614,6.107V17a.235.235,0,0,0,.111.2l6.745,4.064a.2.2,0,0,0,.222,0,.22.22,0,0,0,.111-.2V12.04q0-.025,0-.05V2.965A2.955,2.955,0,0,1,11.223.4,2.708,2.708,0,0,1,14.06.4l5.216,3.142a2.955,2.955,0,0,1,1.418,2.563,2.955,2.955,0,0,1-1.418,2.563L12.419,12.8v8.261A2.955,2.955,0,0,1,11,23.626a2.741,2.741,0,0,1-1.418.4m3.059-21.3a.215.215,0,0,0-.111.033.221.221,0,0,0-.111.2V9.651l5.549-3.343a.237.237,0,0,0,0-.4L12.752,2.764a.216.216,0,0,0-.111-.033" transform="translate(0 0)" fill="#0083db"/>
            </g>
        </g>
    </g>
</svg>
