<svg width="444" height="405" viewBox="0 0 444 405" fill="none" xmlns="http://www.w3.org/2000/svg">
<path fill-rule="evenodd" clip-rule="evenodd" d="M242.67 19.2692C286.775 11.5932 337.047 -13.71 374.158 9.7243C411.45 33.273 401.297 86.9706 413.675 127.253C423.943 160.668 438.726 191.557 440.694 226.259C443.045 267.715 451.67 313.44 426.168 347.529C400.208 382.229 352.557 399.741 307.359 404.487C265.391 408.895 228.555 383.742 188.08 372.534C147.814 361.384 102.19 363.916 70.0488 338.773C35.7994 311.98 16.3104 272.002 7.44663 231.228C-1.73851 188.976 -6.82775 140.67 19.2304 105.005C44.7832 70.0325 97.3885 66.7103 139.44 50.5746C173.587 37.4719 206.357 25.5891 242.67 19.2692Z" fill="#C4C4C4"/>
</svg>
